<?xml version="1.0" encoding="UTF-8"?> <svg xmlns="http://www.w3.org/2000/svg" width="95" height="381" viewBox="0 0 95 381" fill="none"><path d="M93 355.538V374.538L83.1875 374.413V355.538C83.1875 349.038 81.8333 343.621 79.125 339.288C76.375 334.954 72.5417 331.704 67.625 329.538C62.6667 327.329 56.875 326.225 50.25 326.225H44.6875C39.4792 326.225 34.8542 326.85 30.8125 328.1C26.7292 329.35 23.2917 331.183 20.5 333.6C17.6667 336.017 15.5208 338.975 14.0625 342.475C12.6042 345.933 11.875 349.913 11.875 354.413V374.913H2L2 354.413C2 348.454 3 343.017 5 338.1C6.95833 333.183 9.8125 328.954 13.5625 325.413C17.2708 321.829 21.7708 319.079 27.0625 317.163C32.3125 315.246 38.2292 314.288 44.8125 314.288H50.25C56.8333 314.288 62.7708 315.246 68.0625 317.163C73.3125 319.079 77.7917 321.85 81.5 325.475C85.2083 329.058 88.0625 333.392 90.0625 338.475C92.0208 343.517 93 349.204 93 355.538ZM2 368.1H93V380.163H2L2 368.1ZM83.1875 247.31H93L93 295.498H83.1875L83.1875 247.31ZM2 293.06H93V305.123H2L2 293.06ZM41.125 253.685H50.9375V295.498H41.125V253.685ZM2 247.935H11.875L11.875 295.498H2L2 247.935ZM70 192.833C67.875 192.833 66 193.166 64.375 193.833C62.7083 194.458 61.2083 195.583 59.875 197.208C58.5417 198.791 57.2708 200.999 56.0625 203.833C54.8542 206.624 53.625 210.166 52.375 214.458C51.0417 218.958 49.5625 223.02 47.9375 226.645C46.2708 230.27 44.375 233.374 42.25 235.958C40.125 238.541 37.6875 240.52 34.9375 241.895C32.1875 243.27 29.0417 243.958 25.5 243.958C21.9583 243.958 18.6875 243.228 15.6875 241.77C12.6875 240.312 10.0833 238.228 7.875 235.52C5.625 232.77 3.875 229.499 2.625 225.708C1.375 221.916 0.75 217.687 0.75 213.02C0.75 206.187 2.0625 200.395 4.6875 195.645C7.27083 190.853 10.6667 187.208 14.875 184.708C19.0417 182.208 23.5 180.958 28.25 180.958L28.25 192.958C24.8333 192.958 21.8125 193.687 19.1875 195.145C16.5208 196.603 14.4375 198.812 12.9375 201.77C11.3958 204.728 10.625 208.478 10.625 213.02C10.625 217.312 11.2708 220.853 12.5625 223.645C13.8542 226.437 15.6042 228.52 17.8125 229.895C20.0208 231.228 22.5417 231.895 25.375 231.895C27.2917 231.895 29.0417 231.499 30.625 230.708C32.1667 229.874 33.6042 228.603 34.9375 226.895C36.2708 225.145 37.5 222.937 38.625 220.27C39.75 217.562 40.8333 214.333 41.875 210.583C43.3333 205.416 44.9583 200.958 46.75 197.208C48.5417 193.458 50.5625 190.374 52.8125 187.958C55.0208 185.499 57.5417 183.687 60.375 182.52C63.1667 181.312 66.3333 180.708 69.875 180.708C73.5833 180.708 76.9375 181.458 79.9375 182.958C82.9375 184.458 85.5 186.603 87.625 189.395C89.75 192.187 91.3958 195.541 92.5625 199.458C93.6875 203.333 94.25 207.666 94.25 212.458C94.25 216.666 93.6667 220.812 92.5 224.895C91.3333 228.937 89.5833 232.624 87.25 235.958C84.9167 239.249 82.0417 241.895 78.625 243.895C75.1667 245.853 71.1667 246.833 66.625 246.833V234.833C69.75 234.833 72.4375 234.228 74.6875 233.02C76.8958 231.812 78.7292 230.166 80.1875 228.083C81.6458 225.958 82.7292 223.562 83.4375 220.895C84.1042 218.187 84.4375 215.374 84.4375 212.458C84.4375 208.249 83.8542 204.687 82.6875 201.77C81.5208 198.853 79.8542 196.645 77.6875 195.145C75.5208 193.603 72.9583 192.833 70 192.833ZM2 161.355H93V173.418H2L2 161.355ZM47.6875 81.1275H81C82.6667 82.2525 84.5417 84.0442 86.625 86.5025C88.6667 88.9608 90.4583 92.3567 92 96.69C93.5 100.982 94.25 106.523 94.25 113.315C94.25 118.857 93.2917 123.961 91.375 128.628C89.4167 133.253 86.5833 137.273 82.875 140.69C79.125 144.065 74.5833 146.69 69.25 148.565C63.875 150.398 57.7917 151.315 51 151.315H43.9375C37.1458 151.315 31.0833 150.523 25.75 148.94C20.4167 147.315 15.8958 144.94 12.1875 141.815C8.4375 138.69 5.60417 134.857 3.6875 130.315C1.72917 125.773 0.75 120.565 0.75 114.69C0.75 107.732 1.95833 101.919 4.375 97.2525C6.75 92.5442 10.0417 88.8775 14.25 86.2525C18.4583 83.5858 23.25 81.8775 28.625 81.1275V93.19C25.3333 93.7317 22.3333 94.815 19.625 96.44C16.9167 98.0233 14.75 100.294 13.125 103.253C11.4583 106.211 10.625 110.023 10.625 114.69C10.625 118.898 11.3958 122.544 12.9375 125.628C14.4792 128.711 16.6875 131.253 19.5625 133.253C22.4375 135.253 25.9167 136.753 30 137.753C34.0833 138.711 38.6875 139.19 43.8125 139.19H51C56.25 139.19 60.9375 138.586 65.0625 137.378C69.1875 136.128 72.7083 134.357 75.625 132.065C78.5 129.773 80.6875 127.044 82.1875 123.878C83.6875 120.669 84.4375 117.128 84.4375 113.253C84.4375 108.961 84.0833 105.482 83.375 102.815C82.625 100.148 81.75 98.065 80.75 96.565C79.7083 95.065 78.7292 93.9192 77.8125 93.1275H57.4375L57.4375 114.19H47.6875L47.6875 81.1275ZM2 0.0874939H93V12.2125L22.8125 58.025H93V70.0875H2L2 58.025L72.375 12.025H2L2 0.0874939Z" fill="#1F1F1F"></path></svg> 