<?xml version="1.0" encoding="UTF-8"?> <svg xmlns="http://www.w3.org/2000/svg" width="39" height="39" viewBox="0 0 39 39" fill="none"><circle cx="19.5" cy="19.5" r="19.5" fill="#131313"></circle><path fill-rule="evenodd" clip-rule="evenodd" d="M-0.000372344 15.5214C1.58252 7.72388 7.72528 1.58219 15.5234 0.000732422V2.04663C8.83228 3.56441 3.56478 8.8309 2.04562 15.5214H-0.000372344ZM-0.000427246 23.4804C1.58238 31.2781 7.72519 37.4199 15.5234 39.0014V36.9555C8.83219 35.4377 3.56464 30.1711 2.04556 23.4804H-0.000427246ZM36.9535 23.4804C35.435 30.1687 30.1706 35.434 23.4826 36.9539V38.9999C31.2776 37.4162 37.4172 31.2757 38.9995 23.4804H36.9535ZM38.9995 15.5214C37.4171 7.7262 31.2775 1.58585 23.4826 0.00214864V2.04822C30.1705 3.56807 35.4348 8.83323 36.9535 15.5214H38.9995Z" fill="#1F1F1F"></path><ellipse cx="19.503" cy="19.501" rx="3.9796" ry="3.97953" fill="#E26C1A"></ellipse></svg> 