<?xml version="1.0" encoding="UTF-8"?> <svg xmlns="http://www.w3.org/2000/svg" width="633" height="116" viewBox="0 0 633 116" fill="none"><path d="M6.75 105V11.875H23.625V54.6875H24.75L61.125 11.875H81.6875L45.6875 53.6875L82 105H61.6875L33.9375 65.125L23.625 77.3125V105H6.75Z" fill="white"></path><path d="M372.25 11.875L396.438 85.125H397.438L421.625 11.875H440.125L407.312 105H386.562L353.688 11.875H372.25ZM458.1 11.875V105H441.225V11.875H458.1ZM505.512 106.25C497.346 106.25 490.033 104.354 483.575 100.562C477.158 96.7708 472.096 91.3125 468.387 84.1875C464.721 77.0625 462.887 68.5 462.887 58.5C462.887 48.4583 464.742 39.875 468.45 32.75C472.2 25.5833 477.283 20.1042 483.7 16.3125C490.158 12.5208 497.429 10.625 505.512 10.625C510.637 10.625 515.429 11.3542 519.887 12.8125C524.387 14.2708 528.387 16.4167 531.887 19.25C535.387 22.0417 538.242 25.4792 540.45 29.5625C542.7 33.6042 544.179 38.2083 544.887 43.375H527.887C527.429 40.5417 526.533 38.0417 525.2 35.875C523.908 33.7083 522.283 31.875 520.325 30.375C518.408 28.8333 516.221 27.6875 513.762 26.9375C511.304 26.1458 508.658 25.75 505.825 25.75C500.742 25.75 496.242 27.0208 492.325 29.5625C488.408 32.0625 485.346 35.7708 483.137 40.6875C480.929 45.5625 479.825 51.5 479.825 58.5C479.825 65.5833 480.929 71.5625 483.137 76.4375C485.387 81.2708 488.45 84.9375 492.325 87.4375C496.242 89.8958 500.721 91.125 505.762 91.125C508.554 91.125 511.158 90.7708 513.575 90.0625C515.992 89.3125 518.179 88.2083 520.137 86.75C522.137 85.25 523.783 83.4583 525.075 81.375C526.408 79.25 527.346 76.8125 527.887 74.0625H544.887C544.262 78.5208 542.887 82.7083 540.762 86.625C538.679 90.5 535.929 93.9167 532.512 96.875C529.137 99.7917 525.179 102.083 520.637 103.75C516.096 105.417 511.054 106.25 505.512 106.25ZM549.3 105V11.875H566.175V51.3125H609.3V11.875H626.175V105H609.3V65.5H566.175V105H549.3Z" fill="white"></path><path d="M162.75 10.875H183.438L211.062 78.3125H212.125L239.812 10.875H260.75V104H244.188V40H243.438L217.562 103.688H205.438L179.875 39.875H179V104H162.75V10.875Z" fill="white"></path><rect x="140.186" y="16.9255" width="16" height="93" transform="rotate(45 140.186 16.9255)" fill="white"></rect><rect x="73.9626" y="30.2764" width="16" height="93" transform="rotate(-45 73.9626 30.2764)" fill="white"></rect><rect x="66" y="65.5" width="16" height="93" transform="rotate(-90 66 65.5)" fill="white"></rect><rect x="104.5" y="11" width="16" height="93" fill="white"></rect><rect x="342.186" y="16.9255" width="16" height="93" transform="rotate(45 342.186 16.9255)" fill="white"></rect><rect x="275.963" y="30.2764" width="16" height="93" transform="rotate(-45 275.963 30.2764)" fill="white"></rect><rect x="268" y="65.5" width="16" height="93" transform="rotate(-90 268 65.5)" fill="white"></rect><rect x="306.5" y="11" width="16" height="93" fill="white"></rect></svg> 