<?xml version="1.0" encoding="UTF-8"?> <svg xmlns="http://www.w3.org/2000/svg" width="30" height="31" viewBox="0 0 30 31" fill="none"><path d="M15 30.375C23.2843 30.375 30 23.6593 30 15.375C30 7.09074 23.2843 0.375 15 0.375C6.71574 0.375 0 7.09074 0 15.375C0 23.6593 6.71574 30.375 15 30.375Z" fill="#F4F4F4"></path><mask id="mask0_415_3580" style="mask-type:luminance" maskUnits="userSpaceOnUse" x="4" y="6" width="22" height="21"><path d="M25.2008 6.97485H4.80078V26.1749H25.2008V6.97485Z" fill="white"></path></mask><g mask="url(#mask0_415_3580)"><path d="M21.2963 8.81006H8.64844V21.3091H21.2963V8.81006Z" fill="#F4F4F4"></path><path fill-rule="evenodd" clip-rule="evenodd" d="M21.4773 7.84307C17.0884 6.68545 12.4694 6.68545 8.08049 7.84307C6.60717 8.2316 5.48193 9.42466 5.18943 10.9083C4.67123 13.5374 4.67123 16.2416 5.18943 18.8708C5.48182 20.3543 6.6071 21.5474 8.08049 21.9363C10.7348 22.6365 13.4841 22.916 16.2264 22.7645C16.5825 22.745 16.9329 22.8614 17.2053 23.0894L20.4376 25.7958C20.4968 25.8456 20.5801 25.8565 20.6503 25.8241C20.7207 25.7917 20.7659 25.7216 20.7659 25.6447V22.5019C20.7659 22.2758 20.922 22.0772 21.1429 22.0222C21.2545 21.9943 21.3661 21.9657 21.4773 21.9363C22.9507 21.5474 24.076 20.3543 24.3684 18.8708C24.8866 16.2416 24.8866 13.5374 24.3684 10.9083C24.0759 9.42466 22.9507 8.2316 21.4773 7.84307ZM19.0977 10.4398C19.4014 10.4398 19.6476 10.6831 19.6476 10.9832V12.8853C19.6476 13.1854 19.4014 13.4287 19.0977 13.4287H17.1748C16.8711 13.4287 16.6249 13.672 16.6249 13.9721L16.6249 19.1346C16.6249 19.4347 16.3787 19.678 16.075 19.678H13.8754C13.5717 19.678 13.3255 19.4347 13.3255 19.1346V13.9721C13.3255 13.672 13.0793 13.4287 12.7756 13.4287H10.8491C10.5454 13.4287 10.2992 13.1854 10.2992 12.8853V10.9832C10.2992 10.6831 10.5454 10.4398 10.8491 10.4398H19.0977Z" fill="#010606"></path></g></svg> 