<?xml version="1.0" encoding="UTF-8"?> <svg xmlns="http://www.w3.org/2000/svg" width="95" height="472" viewBox="0 0 95 472" fill="none"><path d="M93 70.6925H2V58.5675L72.1875 12.755L2 12.755V0.692505L93 0.692505V12.755L22.625 58.755H93V70.6925ZM50.375 153.17H44.625C37.7917 153.17 31.6667 152.316 26.25 150.608C20.8333 148.899 16.2292 146.441 12.4375 143.233C8.64583 140.024 5.75 136.17 3.75 131.67C1.75 127.212 0.75 122.212 0.75 116.67C0.75 111.295 1.75 106.358 3.75 101.858C5.75 97.3992 8.64583 93.5242 12.4375 90.2325C16.2292 86.9825 20.8333 84.4617 26.25 82.67C31.6667 80.8783 37.7917 79.9825 44.625 79.9825H50.375C57.2083 79.9825 63.3125 80.8575 68.6875 82.6075C74.1042 84.3992 78.7083 86.92 82.5 90.17C86.3333 93.42 89.25 97.2742 91.25 101.733C93.25 106.233 94.25 111.17 94.25 116.545C94.25 122.087 93.25 127.087 91.25 131.545C89.25 136.045 86.3333 139.899 82.5 143.108C78.7083 146.358 74.1042 148.837 68.6875 150.545C63.3125 152.295 57.2083 153.17 50.375 153.17ZM44.625 141.233H50.5C55.9167 141.233 60.7083 140.67 64.875 139.545C69.0417 138.462 72.5417 136.858 75.375 134.733C78.2083 132.608 80.3542 130.003 81.8125 126.92C83.2708 123.878 84 120.42 84 116.545C84 112.795 83.2708 109.399 81.8125 106.358C80.3542 103.358 78.2083 100.774 75.375 98.6075C72.5417 96.4825 69.0417 94.8367 64.875 93.67C60.7083 92.5033 55.9167 91.92 50.5 91.92H44.625C39.1667 91.92 34.3333 92.5033 30.125 93.67C25.9583 94.8367 22.4375 96.5033 19.5625 98.67C16.7292 100.878 14.5833 103.483 13.125 106.483C11.6667 109.524 10.9375 112.92 10.9375 116.67C10.9375 120.587 11.6667 124.066 13.125 127.108C14.5833 130.149 16.7292 132.712 19.5625 134.795C22.4375 136.92 25.9583 138.524 30.125 139.608C34.3333 140.691 39.1667 141.233 44.625 141.233ZM30.9375 240V252C25.1875 251.375 20.0417 249.729 15.5 247.062C10.9583 244.396 7.35417 240.625 4.6875 235.75C2.0625 230.875 0.75 224.792 0.75 217.5C0.75 212.167 1.75 207.312 3.75 202.938C5.75 198.604 8.58333 194.875 12.25 191.75C15.9583 188.625 20.3958 186.208 25.5625 184.5C30.7708 182.833 36.5625 182 42.9375 182H52C58.375 182 64.1458 182.833 69.3125 184.5C74.5208 186.208 78.9792 188.646 82.6875 191.812C86.3958 195.021 89.25 198.875 91.25 203.375C93.25 207.875 94.25 212.938 94.25 218.562C94.25 225.438 92.9583 231.25 90.375 236C87.7917 240.75 84.2083 244.438 79.625 247.062C75.0833 249.729 69.8125 251.375 63.8125 252V240C68.0625 239.417 71.7083 238.333 74.75 236.75C77.8333 235.167 80.2083 232.917 81.875 230C83.5417 227.083 84.375 223.271 84.375 218.562C84.375 214.521 83.6042 210.958 82.0625 207.875C80.5208 204.833 78.3333 202.271 75.5 200.188C72.6667 198.146 69.2708 196.604 65.3125 195.562C61.3542 194.521 56.9583 194 52.125 194H42.9375C38.4792 194 34.2917 194.458 30.375 195.375C26.4583 196.333 23.0208 197.771 20.0625 199.688C17.1042 201.604 14.7708 204.042 13.0625 207C11.3958 209.958 10.5625 213.458 10.5625 217.5C10.5625 222.625 11.375 226.708 13 229.75C14.625 232.792 16.9583 235.083 20 236.625C23.0417 238.208 26.6875 239.333 30.9375 240ZM50.375 329.54H44.625C37.7917 329.54 31.6667 328.686 26.25 326.978C20.8333 325.269 16.2292 322.811 12.4375 319.603C8.64583 316.394 5.75 312.54 3.75 308.04C1.75 303.582 0.75 298.582 0.75 293.04C0.75 287.665 1.75 282.728 3.75 278.228C5.75 273.769 8.64583 269.894 12.4375 266.603C16.2292 263.353 20.8333 260.832 26.25 259.04C31.6667 257.248 37.7917 256.353 44.625 256.353H50.375C57.2083 256.353 63.3125 257.228 68.6875 258.978C74.1042 260.769 78.7083 263.29 82.5 266.54C86.3333 269.79 89.25 273.644 91.25 278.103C93.25 282.603 94.25 287.54 94.25 292.915C94.25 298.457 93.25 303.457 91.25 307.915C89.25 312.415 86.3333 316.269 82.5 319.478C78.7083 322.728 74.1042 325.207 68.6875 326.915C63.3125 328.665 57.2083 329.54 50.375 329.54ZM44.625 317.603H50.5C55.9167 317.603 60.7083 317.04 64.875 315.915C69.0417 314.832 72.5417 313.228 75.375 311.103C78.2083 308.978 80.3542 306.373 81.8125 303.29C83.2708 300.248 84 296.79 84 292.915C84 289.165 83.2708 285.769 81.8125 282.728C80.3542 279.728 78.2083 277.144 75.375 274.978C72.5417 272.853 69.0417 271.207 64.875 270.04C60.7083 268.873 55.9167 268.29 50.5 268.29H44.625C39.1667 268.29 34.3333 268.873 30.125 270.04C25.9583 271.207 22.4375 272.873 19.5625 275.04C16.7292 277.248 14.5833 279.853 13.125 282.853C11.6667 285.894 10.9375 289.29 10.9375 293.04C10.9375 296.957 11.6667 300.436 13.125 303.478C14.5833 306.519 16.7292 309.082 19.5625 311.165C22.4375 313.29 25.9583 314.894 30.125 315.978C34.3333 317.061 39.1667 317.603 44.625 317.603ZM2 363.268V344.268L11.8125 344.393V363.268C11.8125 369.768 13.1667 375.184 15.875 379.518C18.625 383.851 22.4583 387.101 27.375 389.268C32.3333 391.476 38.125 392.58 44.75 392.58H50.3125C55.5208 392.58 60.1458 391.955 64.1875 390.705C68.2708 389.455 71.7083 387.622 74.5 385.205C77.3333 382.788 79.4792 379.83 80.9375 376.33C82.3958 372.872 83.125 368.893 83.125 364.393V343.893H93V364.393C93 370.351 92 375.788 90 380.705C88.0417 385.622 85.1875 389.851 81.4375 393.393C77.7292 396.976 73.2292 399.726 67.9375 401.643C62.6875 403.559 56.7708 404.518 50.1875 404.518H44.75C38.1667 404.518 32.2292 403.559 26.9375 401.643C21.6875 399.726 17.2083 396.955 13.5 393.33C9.79167 389.747 6.9375 385.413 4.9375 380.33C2.97917 375.288 2 369.601 2 363.268ZM93 350.705H2V338.643H93V350.705ZM11.8125 471.495H2V423.307H11.8125V471.495ZM93 425.745H2V413.682H93V425.745ZM53.875 465.12H44.0625V423.307H53.875V465.12ZM93 470.87H83.125V423.307H93V470.87Z" fill="#1F1F1F"></path></svg> 