<?xml version="1.0" encoding="UTF-8"?> <svg xmlns="http://www.w3.org/2000/svg" width="50" height="50" viewBox="0 0 50 50" fill="none"><circle cx="25" cy="25" r="24.5" stroke="white"></circle><path d="M31.0675 24.1927C31.0095 24.2508 30.9406 24.2969 30.8647 24.3283C30.7888 24.3598 30.7075 24.376 30.6253 24.376C30.5432 24.376 30.4619 24.3598 30.386 24.3283C30.3101 24.2969 30.2412 24.2508 30.1832 24.1927L25.6253 19.6341V31.8755C25.6253 32.0413 25.5595 32.2002 25.4423 32.3174C25.3251 32.4346 25.1661 32.5005 25.0003 32.5005C24.8346 32.5005 24.6756 32.4346 24.5584 32.3174C24.4412 32.2002 24.3753 32.0413 24.3753 31.8755V19.6341L19.8175 24.1927C19.7003 24.31 19.5412 24.3758 19.3753 24.3758C19.2095 24.3758 19.0504 24.31 18.9332 24.1927C18.8159 24.0754 18.75 23.9163 18.75 23.7505C18.75 23.5846 18.8159 23.4256 18.9332 23.3083L24.5582 17.6833C24.6162 17.6252 24.6851 17.5791 24.761 17.5476C24.8369 17.5162 24.9182 17.5 25.0003 17.5C25.0825 17.5 25.1638 17.5162 25.2397 17.5476C25.3156 17.5791 25.3845 17.6252 25.4425 17.6833L31.0675 23.3083C31.1256 23.3663 31.1717 23.4353 31.2032 23.5112C31.2347 23.587 31.2508 23.6684 31.2508 23.7505C31.2508 23.8326 31.2347 23.914 31.2032 23.9898C31.1717 24.0657 31.1256 24.1346 31.0675 24.1927Z" fill="white"></path></svg> 