<?xml version="1.0" encoding="UTF-8"?> <svg xmlns="http://www.w3.org/2000/svg" width="21" height="18" viewBox="0 0 21 18" fill="none"><path fill-rule="evenodd" clip-rule="evenodd" d="M20.3166 5.37978L15.4479 0.507767C15.289 0.348826 15.0715 0.263771 14.8456 0.275482C14.6214 0.285522 14.4123 0.390924 14.2684 0.564925C14.0107 0.896221 14.0442 1.36801 14.3453 1.65912L17.8288 5.14247H1.20965C0.542075 5.14414 0 5.68621 0 6.35377V14.6912H1.59282V7.15171C1.59282 7.04129 1.638 6.93589 1.71496 6.85892C1.79192 6.78196 1.89733 6.73679 2.00775 6.73679H17.8302L14.3618 10.2101C14.0523 10.523 14.0523 11.0249 14.3618 11.3378C14.5124 11.4867 14.7148 11.572 14.9256 11.572C15.1381 11.572 15.3406 11.4867 15.4895 11.3378L20.3166 6.51244C20.6278 6.1996 20.6278 5.69264 20.3166 5.37978ZM1.02844 17.6912H0.564371C0.637779 17.7135 0.715687 17.7255 0.79641 17.7255C0.87713 17.7255 0.955035 17.7135 1.02844 17.6912Z" fill="white"></path></svg> 